<svg width="148" height="30" viewBox="0 0 148 30" fill="none" xmlns="http://www.w3.org/2000/svg">
<path d="M23 15C23.5523 15 24.0043 15.4485 23.9584 15.9989C23.7895 18.0201 23.1105 19.9714 21.9776 21.6668C20.6591 23.6402 18.7849 25.1783 16.5922 26.0866C14.3995 26.9948 11.9867 27.2324 9.65892 26.7694C7.33114 26.3064 5.19295 25.1635 3.51472 23.4853C1.83649 21.8071 0.693599 19.6689 0.230577 17.3411C-0.232446 15.0133 0.00519401 12.6005 0.913446 10.4078C1.8217 8.21509 3.35977 6.34094 5.33316 5.02236C7.02859 3.88951 8.97993 3.21046 11.0011 3.04164C11.5515 2.99567 12 3.44772 12 4V8C12 8.55228 11.5492 8.99151 11.0046 9.08314C10.1721 9.22319 9.37471 9.53802 8.66658 10.0112C7.67988 10.6705 6.91085 11.6075 6.45672 12.7039C6.0026 13.8003 5.88378 15.0067 6.11529 16.1705C6.3468 17.3344 6.91824 18.4035 7.75736 19.2426C8.59647 20.0818 9.66557 20.6532 10.8295 20.8847C11.9933 21.1162 13.1997 20.9974 14.2961 20.5433C15.3925 20.0892 16.3295 19.3201 16.9888 18.3334C17.462 17.6253 17.7768 16.8279 17.9169 15.9954C18.0085 15.4508 18.4477 15 19 15H23Z" fill="#E1EFAF"/>
<path d="M42.56 12.36C42.56 13.1067 42.38 13.8067 42.02 14.46C41.6733 15.1133 41.12 15.64 40.36 16.04C39.6133 16.44 38.6667 16.64 37.52 16.64H35.18V22H32.38V8.04H37.52C38.6 8.04 39.52 8.22667 40.28 8.6C41.04 8.97333 41.6067 9.48667 41.98 10.14C42.3667 10.7933 42.56 11.5333 42.56 12.36ZM37.4 14.38C38.1733 14.38 38.7467 14.2067 39.12 13.86C39.4933 13.5 39.68 13 39.68 12.36C39.68 11 38.92 10.32 37.4 10.32H35.18V14.38H37.4ZM47.348 12.64C47.708 12.0533 48.1746 11.5933 48.748 11.26C49.3346 10.9267 50.0013 10.76 50.748 10.76V13.7H50.008C49.128 13.7 48.4613 13.9067 48.008 14.32C47.568 14.7333 47.348 15.4533 47.348 16.48V22H44.548V10.92H47.348V12.64ZM57.5539 22.18C56.4872 22.18 55.5272 21.9467 54.6739 21.48C53.8206 21 53.1472 20.3267 52.6539 19.46C52.1739 18.5933 51.9339 17.5933 51.9339 16.46C51.9339 15.3267 52.1806 14.3267 52.6739 13.46C53.1806 12.5933 53.8672 11.9267 54.7339 11.46C55.6006 10.98 56.5672 10.74 57.6339 10.74C58.7006 10.74 59.6672 10.98 60.5339 11.46C61.4006 11.9267 62.0806 12.5933 62.5739 13.46C63.0806 14.3267 63.3339 15.3267 63.3339 16.46C63.3339 17.5933 63.0739 18.5933 62.5539 19.46C62.0472 20.3267 61.3539 21 60.4739 21.48C59.6072 21.9467 58.6339 22.18 57.5539 22.18ZM57.5539 19.74C58.0606 19.74 58.5339 19.62 58.9739 19.38C59.4272 19.1267 59.7872 18.7533 60.0539 18.26C60.3206 17.7667 60.4539 17.1667 60.4539 16.46C60.4539 15.4067 60.1739 14.6 59.6139 14.04C59.0672 13.4667 58.3939 13.18 57.5939 13.18C56.7939 13.18 56.1206 13.4667 55.5739 14.04C55.0406 14.6 54.7739 15.4067 54.7739 16.46C54.7739 17.5133 55.0339 18.3267 55.5539 18.9C56.0872 19.46 56.7539 19.74 57.5539 19.74ZM69.7278 10.74C70.5545 10.74 71.2811 10.9067 71.9078 11.24C72.5345 11.56 73.0278 11.98 73.3878 12.5V10.92H76.2078V22.08C76.2078 23.1067 76.0011 24.02 75.5878 24.82C75.1745 25.6333 74.5545 26.2733 73.7278 26.74C72.9011 27.22 71.9011 27.46 70.7278 27.46C69.1545 27.46 67.8611 27.0933 66.8478 26.36C65.8478 25.6267 65.2811 24.6267 65.1478 23.36H67.9278C68.0745 23.8667 68.3878 24.2667 68.8678 24.56C69.3611 24.8667 69.9545 25.02 70.6478 25.02C71.4611 25.02 72.1211 24.7733 72.6278 24.28C73.1345 23.8 73.3878 23.0667 73.3878 22.08V20.36C73.0278 20.88 72.5278 21.3133 71.8878 21.66C71.2611 22.0067 70.5411 22.18 69.7278 22.18C68.7945 22.18 67.9411 21.94 67.1678 21.46C66.3945 20.98 65.7811 20.3067 65.3278 19.44C64.8878 18.56 64.6678 17.5533 64.6678 16.42C64.6678 15.3 64.8878 14.3067 65.3278 13.44C65.7811 12.5733 66.3878 11.9067 67.1478 11.44C67.9211 10.9733 68.7811 10.74 69.7278 10.74ZM73.3878 16.46C73.3878 15.78 73.2545 15.2 72.9878 14.72C72.7211 14.2267 72.3611 13.8533 71.9078 13.6C71.4545 13.3333 70.9678 13.2 70.4478 13.2C69.9278 13.2 69.4478 13.3267 69.0078 13.58C68.5678 13.8333 68.2078 14.2067 67.9278 14.7C67.6611 15.18 67.5278 15.7533 67.5278 16.42C67.5278 17.0867 67.6611 17.6733 67.9278 18.18C68.2078 18.6733 68.5678 19.0533 69.0078 19.32C69.4611 19.5867 69.9411 19.72 70.4478 19.72C70.9678 19.72 71.4545 19.5933 71.9078 19.34C72.3611 19.0733 72.7211 18.7 72.9878 18.22C73.2545 17.7267 73.3878 17.14 73.3878 16.46ZM81.7425 12.64C82.1025 12.0533 82.5692 11.5933 83.1425 11.26C83.7292 10.9267 84.3958 10.76 85.1425 10.76V13.7H84.4025C83.5225 13.7 82.8558 13.9067 82.4025 14.32C81.9625 14.7333 81.7425 15.4533 81.7425 16.48V22H78.9425V10.92H81.7425V12.64ZM97.3284 16.22C97.3284 16.62 97.3018 16.98 97.2484 17.3H89.1484C89.2151 18.1 89.4951 18.7267 89.9884 19.18C90.4818 19.6333 91.0884 19.86 91.8084 19.86C92.8484 19.86 93.5884 19.4133 94.0284 18.52H97.0484C96.7284 19.5867 96.1151 20.4667 95.2084 21.16C94.3018 21.84 93.1884 22.18 91.8684 22.18C90.8018 22.18 89.8418 21.9467 88.9884 21.48C88.1484 21 87.4884 20.3267 87.0084 19.46C86.5418 18.5933 86.3084 17.5933 86.3084 16.46C86.3084 15.3133 86.5418 14.3067 87.0084 13.44C87.4751 12.5733 88.1284 11.9067 88.9684 11.44C89.8084 10.9733 90.7751 10.74 91.8684 10.74C92.9218 10.74 93.8618 10.9667 94.6884 11.42C95.5284 11.8733 96.1751 12.52 96.6284 13.36C97.0951 14.1867 97.3284 15.14 97.3284 16.22ZM94.4284 15.42C94.4151 14.7 94.1551 14.1267 93.6484 13.7C93.1418 13.26 92.5218 13.04 91.7884 13.04C91.0951 13.04 90.5084 13.2533 90.0284 13.68C89.5618 14.0933 89.2751 14.6733 89.1684 15.42H94.4284ZM103.612 22.18C102.706 22.18 101.892 22.02 101.172 21.7C100.452 21.3667 99.8789 20.92 99.4522 20.36C99.0389 19.8 98.8122 19.18 98.7722 18.5H101.592C101.646 18.9267 101.852 19.28 102.212 19.56C102.586 19.84 103.046 19.98 103.592 19.98C104.126 19.98 104.539 19.8733 104.832 19.66C105.139 19.4467 105.292 19.1733 105.292 18.84C105.292 18.48 105.106 18.2133 104.732 18.04C104.372 17.8533 103.792 17.6533 102.992 17.44C102.166 17.24 101.486 17.0333 100.952 16.82C100.432 16.6067 99.9789 16.28 99.5922 15.84C99.2189 15.4 99.0322 14.8067 99.0322 14.06C99.0322 13.4467 99.2055 12.8867 99.5522 12.38C99.9122 11.8733 100.419 11.4733 101.072 11.18C101.739 10.8867 102.519 10.74 103.412 10.74C104.732 10.74 105.786 11.0733 106.572 11.74C107.359 12.3933 107.792 13.28 107.872 14.4H105.192C105.152 13.96 104.966 13.6133 104.632 13.36C104.312 13.0933 103.879 12.96 103.332 12.96C102.826 12.96 102.432 13.0533 102.152 13.24C101.886 13.4267 101.752 13.6867 101.752 14.02C101.752 14.3933 101.939 14.68 102.312 14.88C102.686 15.0667 103.266 15.26 104.052 15.46C104.852 15.66 105.512 15.8667 106.032 16.08C106.552 16.2933 106.999 16.6267 107.372 17.08C107.759 17.52 107.959 18.1067 107.972 18.84C107.972 19.48 107.792 20.0533 107.432 20.56C107.086 21.0667 106.579 21.4667 105.912 21.76C105.259 22.04 104.492 22.18 103.612 22.18ZM114.511 22.18C113.604 22.18 112.791 22.02 112.071 21.7C111.351 21.3667 110.777 20.92 110.351 20.36C109.937 19.8 109.711 19.18 109.671 18.5H112.491C112.544 18.9267 112.751 19.28 113.111 19.56C113.484 19.84 113.944 19.98 114.491 19.98C115.024 19.98 115.437 19.8733 115.731 19.66C116.037 19.4467 116.191 19.1733 116.191 18.84C116.191 18.48 116.004 18.2133 115.631 18.04C115.271 17.8533 114.691 17.6533 113.891 17.44C113.064 17.24 112.384 17.0333 111.851 16.82C111.331 16.6067 110.877 16.28 110.491 15.84C110.117 15.4 109.931 14.8067 109.931 14.06C109.931 13.4467 110.104 12.8867 110.451 12.38C110.811 11.8733 111.317 11.4733 111.971 11.18C112.637 10.8867 113.417 10.74 114.311 10.74C115.631 10.74 116.684 11.0733 117.471 11.74C118.257 12.3933 118.691 13.28 118.771 14.4H116.091C116.051 13.96 115.864 13.6133 115.531 13.36C115.211 13.0933 114.777 12.96 114.231 12.96C113.724 12.96 113.331 13.0533 113.051 13.24C112.784 13.4267 112.651 13.6867 112.651 14.02C112.651 14.3933 112.837 14.68 113.211 14.88C113.584 15.0667 114.164 15.26 114.951 15.46C115.751 15.66 116.411 15.8667 116.931 16.08C117.451 16.2933 117.897 16.6267 118.271 17.08C118.657 17.52 118.857 18.1067 118.871 18.84C118.871 19.48 118.691 20.0533 118.331 20.56C117.984 21.0667 117.477 21.4667 116.811 21.76C116.157 22.04 115.391 22.18 114.511 22.18ZM123.929 8.04V16.68C123.929 17.6267 124.176 18.3533 124.669 18.86C125.162 19.3533 125.856 19.6 126.749 19.6C127.656 19.6 128.356 19.3533 128.849 18.86C129.342 18.3533 129.589 17.6267 129.589 16.68V8.04H132.409V16.66C132.409 17.8467 132.149 18.8533 131.629 19.68C131.122 20.4933 130.436 21.1067 129.569 21.52C128.716 21.9333 127.762 22.14 126.709 22.14C125.669 22.14 124.722 21.9333 123.869 21.52C123.029 21.1067 122.362 20.4933 121.869 19.68C121.376 18.8533 121.129 17.8467 121.129 16.66V8.04H123.929ZM137.914 12.52C138.274 12.0133 138.768 11.5933 139.394 11.26C140.034 10.9133 140.761 10.74 141.574 10.74C142.521 10.74 143.374 10.9733 144.134 11.44C144.908 11.9067 145.514 12.5733 145.954 13.44C146.408 14.2933 146.634 15.2867 146.634 16.42C146.634 17.5533 146.408 18.56 145.954 19.44C145.514 20.3067 144.908 20.98 144.134 21.46C143.374 21.94 142.521 22.18 141.574 22.18C140.761 22.18 140.041 22.0133 139.414 21.68C138.801 21.3467 138.301 20.9267 137.914 20.42V27.28H135.114V10.92H137.914V12.52ZM143.774 16.42C143.774 15.7533 143.634 15.18 143.354 14.7C143.088 14.2067 142.728 13.8333 142.274 13.58C141.834 13.3267 141.354 13.2 140.834 13.2C140.328 13.2 139.848 13.3333 139.394 13.6C138.954 13.8533 138.594 14.2267 138.314 14.72C138.048 15.2133 137.914 15.7933 137.914 16.46C137.914 17.1267 138.048 17.7067 138.314 18.2C138.594 18.6933 138.954 19.0733 139.394 19.34C139.848 19.5933 140.328 19.72 140.834 19.72C141.354 19.72 141.834 19.5867 142.274 19.32C142.728 19.0533 143.088 18.6733 143.354 18.18C143.634 17.6867 143.774 17.1 143.774 16.42Z" fill="#1B2E3B"/>
</svg>
