<svg width="58" height="58" viewBox="0 0 58 58" fill="none" xmlns="http://www.w3.org/2000/svg">
<path d="M13 18.7826H19.087" stroke="white" stroke-width="2" stroke-linecap="round" stroke-linejoin="round"/>
<path d="M19.7826 21.8261V16.1739L23.2609 15.3043V22.6956L19.7826 21.8261Z" stroke="white" stroke-width="2" stroke-linecap="round" stroke-linejoin="round"/>
<path d="M28.0435 14H23.2609V15.3043V24H40.9565M40.9565 24V14M40.9565 24L43.7948 23.0844C44.5131 22.8527 45 22.1841 45 21.4293V16.5707C45 15.8159 44.5131 15.1473 43.7948 14.9156L40.9565 14M40.9565 14H32.5217" stroke="white" stroke-width="2" stroke-linecap="round" stroke-linejoin="round"/>
<path d="M41.5217 23.5652C41.5217 23.5652 43.3115 27.1797 44 29.6522C44.6373 31.9405 45 35.6522 45 35.6522" stroke="white" stroke-width="2" stroke-linecap="round"/>
<path d="M32.8261 24C32.971 24.7246 33.1739 26.3478 30.8261 28.0435C30.0379 28.6127 33.0001 30 36.3043 28.3478" stroke="white" stroke-width="2" stroke-linecap="round" stroke-linejoin="round"/>
<path d="M35.4348 24C36.4493 27.1884 38.087 34.3478 36 35.7391M36 35.7391C33.9131 37.1304 29.7826 39.3623 28.0435 40.5217V44.3043H45V35.7391H36Z" stroke="white" stroke-width="2" stroke-linecap="round" stroke-linejoin="round"/>
</svg>
