<svg width="38" height="38" viewBox="0 0 38 38" fill="none" xmlns="http://www.w3.org/2000/svg">
<path d="M24.517 16.3838L24.5272 16.341L24.5412 16.2992C24.8457 15.3863 24.2343 14.2067 23.1478 13.8395C20.1889 12.9196 19.3673 9.11838 21.5605 6.92703L26.3094 2.18224L26.333 2.1587L26.3581 2.13679C28.0644 0.644986 30.7007 0.582006 32.3023 2.18224L35.5248 5.40192L35.5339 5.41098L35.5427 5.42027C36.5776 6.50864 37.0059 7.98548 36.9999 9.60011C36.994 11.2104 36.5595 13.0297 35.7873 14.9364C34.2416 18.753 31.2709 23.0984 27.2142 27.1516C23.1607 31.2015 18.8133 34.2123 14.9933 35.7787C13.0851 36.5612 11.2606 37.0029 9.64324 37C8.01756 36.997 6.53474 36.5406 5.44813 35.455L2.22567 32.2353L2.20212 32.2118L2.18019 32.1867C0.686562 30.4813 0.623455 27.8458 2.22567 26.2451L6.97458 21.5003C9.16637 19.3104 12.9695 20.1291 13.8908 23.0865C14.225 24.0711 15.3735 24.6844 16.4414 24.4539C17.8932 24.0869 19.7274 22.9092 21.3318 21.3264C22.942 19.738 24.1544 17.9057 24.517 16.3838Z" stroke="white" stroke-width="2"/>
</svg>
