<svg width="58" height="58" viewBox="0 0 58 58" fill="none" xmlns="http://www.w3.org/2000/svg">
<path d="M36.1217 16H28.9094H12.8037C10.9205 16 9.39392 17.5266 9.39392 19.4097V32.25V35.9617C9.39392 36.9033 10.1572 37.6666 11.0988 37.6666H16.7274M48.4249 24.3333V35.9617C48.4249 36.9033 47.6616 37.6666 46.7201 37.6666H22.5457" stroke="white" stroke-width="2" stroke-linecap="round"/>
<path d="M48.425 36.8333L50.1182 41.4063C50.9427 43.6332 49.2953 45.9999 46.9206 45.9999H10.8984C8.52376 45.9999 6.8763 43.6332 7.70083 41.4063L9.394 36.8333" stroke="white" stroke-width="2"/>
<path d="M46.0891 13.4926C46.7028 12.8899 47.6976 12.8899 48.3113 13.4926L49.4621 14.6228C50.0757 15.2255 50.0757 16.2026 49.4621 16.8052L41.2427 24.8777C40.948 25.1671 40.5483 25.3297 40.1316 25.3297L38.9808 25.3297C38.113 25.3297 37.4095 24.6388 37.4095 23.7865L37.4095 22.6562C37.4095 22.247 37.5751 21.8544 37.8697 21.565L46.0891 13.4926Z" stroke="white" stroke-width="2"/>
</svg>
